<svg width="110" height="100" viewBox="0 0 110 100" fill="none" xmlns="http://www.w3.org/2000/svg">
<circle cx="50" cy="50" r="50" fill="#EEEEEE"/>
<circle cx="60" cy="50" r="50" fill="#FFC560"/>
<path d="M10.444 45.612C11.372 45.612 12.168 45.78 12.832 46.116C13.496 46.452 14.004 46.936 14.356 47.568C14.708 48.2 14.884 48.952 14.884 49.824C14.884 50.688 14.708 51.436 14.356 52.068C14.004 52.692 13.496 53.172 12.832 53.508C12.168 53.836 11.372 54 10.444 54H7.96V45.612H10.444ZM10.444 53.304C11.612 53.304 12.5 53 13.108 52.392C13.724 51.776 14.032 50.92 14.032 49.824C14.032 48.72 13.724 47.86 13.108 47.244C12.5 46.62 11.612 46.308 10.444 46.308H8.8V53.304H10.444ZM16.0487 50.712C16.0487 50.04 16.1807 49.452 16.4447 48.948C16.7167 48.436 17.0887 48.044 17.5607 47.772C18.0407 47.492 18.5807 47.352 19.1807 47.352C19.8047 47.352 20.3407 47.496 20.7887 47.784C21.2447 48.072 21.5727 48.44 21.7727 48.888V47.448H22.6127V54H21.7727V52.548C21.5647 52.996 21.2327 53.368 20.7767 53.664C20.3287 53.952 19.7927 54.096 19.1687 54.096C18.5767 54.096 18.0407 53.956 17.5607 53.676C17.0887 53.396 16.7167 53 16.4447 52.488C16.1807 51.976 16.0487 51.384 16.0487 50.712ZM21.7727 50.724C21.7727 50.196 21.6647 49.732 21.4487 49.332C21.2327 48.932 20.9367 48.624 20.5607 48.408C20.1927 48.192 19.7847 48.084 19.3367 48.084C18.8727 48.084 18.4567 48.188 18.0887 48.396C17.7207 48.604 17.4287 48.908 17.2127 49.308C17.0047 49.7 16.9007 50.168 16.9007 50.712C16.9007 51.248 17.0047 51.72 17.2127 52.128C17.4287 52.528 17.7207 52.836 18.0887 53.052C18.4567 53.26 18.8727 53.364 19.3367 53.364C19.7847 53.364 20.1927 53.256 20.5607 53.04C20.9367 52.824 21.2327 52.516 21.4487 52.116C21.6647 51.716 21.7727 51.252 21.7727 50.724ZM27.6023 47.328C28.3863 47.328 29.0263 47.572 29.5223 48.06C30.0183 48.54 30.2663 49.24 30.2663 50.16V54H29.4383V50.256C29.4383 49.544 29.2583 49 28.8983 48.624C28.5463 48.248 28.0623 48.06 27.4463 48.06C26.8143 48.06 26.3103 48.26 25.9343 48.66C25.5583 49.06 25.3703 49.648 25.3703 50.424V54H24.5303V47.448H25.3703V48.564C25.5783 48.164 25.8783 47.86 26.2703 47.652C26.6623 47.436 27.1063 47.328 27.6023 47.328ZM39.341 49.668C39.813 49.756 40.213 49.996 40.541 50.388C40.869 50.78 41.033 51.236 41.033 51.756C41.033 52.18 40.925 52.564 40.709 52.908C40.501 53.244 40.193 53.512 39.785 53.712C39.377 53.904 38.889 54 38.321 54H35.417V45.612H38.237C39.085 45.612 39.729 45.808 40.169 46.2C40.617 46.592 40.841 47.1 40.841 47.724C40.841 48.244 40.701 48.668 40.421 48.996C40.141 49.316 39.781 49.54 39.341 49.668ZM36.257 49.32H38.213C38.781 49.32 39.217 49.188 39.521 48.924C39.833 48.652 39.989 48.28 39.989 47.808C39.989 47.344 39.833 46.98 39.521 46.716C39.217 46.452 38.769 46.32 38.177 46.32H36.257V49.32ZM38.261 53.292C38.869 53.292 39.341 53.148 39.677 52.86C40.021 52.572 40.193 52.176 40.193 51.672C40.193 51.168 40.013 50.768 39.653 50.472C39.301 50.168 38.825 50.016 38.225 50.016H36.257V53.292H38.261ZM42.1932 50.712C42.1932 50.04 42.3252 49.452 42.5892 48.948C42.8612 48.436 43.2332 48.044 43.7052 47.772C44.1852 47.492 44.7252 47.352 45.3252 47.352C45.9492 47.352 46.4852 47.496 46.9332 47.784C47.3892 48.072 47.7172 48.44 47.9172 48.888V47.448H48.7572V54H47.9172V52.548C47.7092 52.996 47.3772 53.368 46.9212 53.664C46.4732 53.952 45.9372 54.096 45.3132 54.096C44.7212 54.096 44.1852 53.956 43.7052 53.676C43.2332 53.396 42.8612 53 42.5892 52.488C42.3252 51.976 42.1932 51.384 42.1932 50.712ZM47.9172 50.724C47.9172 50.196 47.8092 49.732 47.5932 49.332C47.3772 48.932 47.0812 48.624 46.7052 48.408C46.3372 48.192 45.9292 48.084 45.4812 48.084C45.0172 48.084 44.6012 48.188 44.2332 48.396C43.8652 48.604 43.5732 48.908 43.3572 49.308C43.1492 49.7 43.0452 50.168 43.0452 50.712C43.0452 51.248 43.1492 51.72 43.3572 52.128C43.5732 52.528 43.8652 52.836 44.2332 53.052C44.6012 53.26 45.0172 53.364 45.4812 53.364C45.9292 53.364 46.3372 53.256 46.7052 53.04C47.0812 52.824 47.3772 52.516 47.5932 52.116C47.8092 51.716 47.9172 51.252 47.9172 50.724ZM53.7468 47.328C54.5308 47.328 55.1708 47.572 55.6668 48.06C56.1628 48.54 56.4108 49.24 56.4108 50.16V54H55.5828V50.256C55.5828 49.544 55.4028 49 55.0428 48.624C54.6908 48.248 54.2068 48.06 53.5908 48.06C52.9588 48.06 52.4548 48.26 52.0788 48.66C51.7028 49.06 51.5148 49.648 51.5148 50.424V54H50.6748V47.448H51.5148V48.564C51.7228 48.164 52.0228 47.86 52.4148 47.652C52.8068 47.436 53.2508 47.328 53.7468 47.328ZM63.6686 47.448L59.7806 57.084H58.9046L60.1766 53.964L57.4886 47.448H58.4126L60.6446 53.04L62.8046 47.448H63.6686ZM64.4237 50.712C64.4237 50.04 64.5557 49.452 64.8197 48.948C65.0917 48.436 65.4637 48.044 65.9357 47.772C66.4157 47.492 66.9557 47.352 67.5557 47.352C68.1797 47.352 68.7157 47.496 69.1637 47.784C69.6197 48.072 69.9477 48.44 70.1477 48.888V47.448H70.9877V54H70.1477V52.548C69.9397 52.996 69.6077 53.368 69.1517 53.664C68.7037 53.952 68.1677 54.096 67.5437 54.096C66.9517 54.096 66.4157 53.956 65.9357 53.676C65.4637 53.396 65.0917 53 64.8197 52.488C64.5557 51.976 64.4237 51.384 64.4237 50.712ZM70.1477 50.724C70.1477 50.196 70.0397 49.732 69.8237 49.332C69.6077 48.932 69.3117 48.624 68.9357 48.408C68.5677 48.192 68.1597 48.084 67.7117 48.084C67.2477 48.084 66.8317 48.188 66.4637 48.396C66.0957 48.604 65.8037 48.908 65.5877 49.308C65.3797 49.7 65.2757 50.168 65.2757 50.712C65.2757 51.248 65.3797 51.72 65.5877 52.128C65.8037 52.528 66.0957 52.836 66.4637 53.052C66.8317 53.26 67.2477 53.364 67.7117 53.364C68.1597 53.364 68.5677 53.256 68.9357 53.04C69.3117 52.824 69.6077 52.516 69.8237 52.116C70.0397 51.716 70.1477 51.252 70.1477 50.724ZM76.4453 54L73.7453 51.06V54H72.9053V45.12H73.7453V50.376L76.3853 47.448H77.5613L74.4533 50.712L77.5853 54H76.4453ZM82.8039 45.12V54H81.9639V45.12H82.8039ZM84.3221 50.712C84.3221 50.04 84.4541 49.452 84.7181 48.948C84.9901 48.436 85.3621 48.044 85.8341 47.772C86.3141 47.492 86.8541 47.352 87.4541 47.352C88.0781 47.352 88.6141 47.496 89.0621 47.784C89.5181 48.072 89.8461 48.44 90.0461 48.888V47.448H90.8861V54H90.0461V52.548C89.8381 52.996 89.5061 53.368 89.0501 53.664C88.6021 53.952 88.0661 54.096 87.4421 54.096C86.8501 54.096 86.3141 53.956 85.8341 53.676C85.3621 53.396 84.9901 53 84.7181 52.488C84.4541 51.976 84.3221 51.384 84.3221 50.712ZM90.0461 50.724C90.0461 50.196 89.9381 49.732 89.7221 49.332C89.5061 48.932 89.2101 48.624 88.8341 48.408C88.4661 48.192 88.0581 48.084 87.6101 48.084C87.1461 48.084 86.7301 48.188 86.3621 48.396C85.9941 48.604 85.7021 48.908 85.4861 49.308C85.2781 49.7 85.1741 50.168 85.1741 50.712C85.1741 51.248 85.2781 51.72 85.4861 52.128C85.7021 52.528 85.9941 52.836 86.3621 53.052C86.7301 53.26 87.1461 53.364 87.6101 53.364C88.0581 53.364 88.4661 53.256 88.8341 53.04C89.2101 52.824 89.5061 52.516 89.7221 52.116C89.9381 51.716 90.0461 51.252 90.0461 50.724ZM95.5518 47.352C96.1678 47.352 96.7038 47.496 97.1598 47.784C97.6158 48.072 97.9438 48.436 98.1438 48.876V47.448H98.9838V54.168C98.9838 54.768 98.8518 55.3 98.5878 55.764C98.3318 56.228 97.9718 56.584 97.5078 56.832C97.0438 57.088 96.5158 57.216 95.9238 57.216C95.0838 57.216 94.3838 57.016 93.8238 56.616C93.2718 56.216 92.9278 55.672 92.7918 54.984H93.6198C93.7638 55.44 94.0358 55.804 94.4358 56.076C94.8438 56.348 95.3398 56.484 95.9238 56.484C96.3478 56.484 96.7278 56.392 97.0638 56.208C97.3998 56.032 97.6638 55.768 97.8558 55.416C98.0478 55.064 98.1438 54.648 98.1438 54.168V52.548C97.9358 52.996 97.6038 53.368 97.1478 53.664C96.6998 53.952 96.1678 54.096 95.5518 54.096C94.9518 54.096 94.4118 53.956 93.9318 53.676C93.4598 53.396 93.0878 53 92.8158 52.488C92.5518 51.976 92.4198 51.384 92.4198 50.712C92.4198 50.04 92.5518 49.452 92.8158 48.948C93.0878 48.436 93.4598 48.044 93.9318 47.772C94.4118 47.492 94.9518 47.352 95.5518 47.352ZM98.1438 50.724C98.1438 50.196 98.0358 49.732 97.8198 49.332C97.6038 48.932 97.3078 48.624 96.9318 48.408C96.5638 48.192 96.1558 48.084 95.7078 48.084C95.2438 48.084 94.8278 48.188 94.4598 48.396C94.0918 48.604 93.7998 48.908 93.5838 49.308C93.3758 49.7 93.2718 50.168 93.2718 50.712C93.2718 51.248 93.3758 51.72 93.5838 52.128C93.7998 52.528 94.0918 52.836 94.4598 53.052C94.8278 53.26 95.2438 53.364 95.7078 53.364C96.1558 53.364 96.5638 53.256 96.9318 53.04C97.3078 52.824 97.6038 52.516 97.8198 52.116C98.0358 51.716 98.1438 51.252 98.1438 50.724ZM101.321 46.212C101.153 46.212 101.009 46.152 100.889 46.032C100.769 45.912 100.709 45.764 100.709 45.588C100.709 45.412 100.769 45.268 100.889 45.156C101.009 45.036 101.153 44.976 101.321 44.976C101.489 44.976 101.633 45.036 101.753 45.156C101.873 45.268 101.933 45.412 101.933 45.588C101.933 45.764 101.873 45.912 101.753 46.032C101.633 46.152 101.489 46.212 101.321 46.212ZM101.741 47.448V54H100.901V47.448H101.741Z" fill="#0A2E09"/>
</svg>
