<svg width="150" height="100" viewBox="0 0 150 100" fill="none" xmlns="http://www.w3.org/2000/svg">
<circle cx="50" cy="50" r="50" fill="#EEEEEE"/>
<circle cx="100" cy="50" r="50" fill="#FFC560"/>
<path d="M21.1518 47.214C22.2345 47.214 23.1631 47.41 23.9378 47.802C24.7125 48.194 25.3051 48.7587 25.7158 49.496C26.1265 50.2333 26.3318 51.1107 26.3318 52.128C26.3318 53.136 26.1265 54.0087 25.7158 54.746C25.3051 55.474 24.7125 56.034 23.9378 56.426C23.1631 56.8087 22.2345 57 21.1518 57H18.2538V47.214H21.1518ZM21.1518 56.188C22.5145 56.188 23.5505 55.8333 24.2598 55.124C24.9785 54.4053 25.3378 53.4067 25.3378 52.128C25.3378 50.84 24.9785 49.8367 24.2598 49.118C23.5505 48.39 22.5145 48.026 21.1518 48.026H19.2338V56.188H21.1518ZM27.6906 53.164C27.6906 52.38 27.8446 51.694 28.1526 51.106C28.4699 50.5087 28.9039 50.0513 29.4546 49.734C30.0146 49.4073 30.6446 49.244 31.3446 49.244C32.0726 49.244 32.6979 49.412 33.2206 49.748C33.7526 50.084 34.1352 50.5133 34.3686 51.036V49.356H35.3486V57H34.3686V55.306C34.1259 55.8287 33.7386 56.2627 33.2066 56.608C32.6839 56.944 32.0586 57.112 31.3306 57.112C30.6399 57.112 30.0146 56.9487 29.4546 56.622C28.9039 56.2953 28.4699 55.8333 28.1526 55.236C27.8446 54.6387 27.6906 53.948 27.6906 53.164ZM34.3686 53.178C34.3686 52.562 34.2426 52.0207 33.9906 51.554C33.7386 51.0873 33.3932 50.728 32.9546 50.476C32.5252 50.224 32.0492 50.098 31.5266 50.098C30.9852 50.098 30.4999 50.2193 30.0706 50.462C29.6412 50.7047 29.3006 51.0593 29.0486 51.526C28.8059 51.9833 28.6846 52.5293 28.6846 53.164C28.6846 53.7893 28.8059 54.34 29.0486 54.816C29.3006 55.2827 29.6412 55.642 30.0706 55.894C30.4999 56.1367 30.9852 56.258 31.5266 56.258C32.0492 56.258 32.5252 56.132 32.9546 55.88C33.3932 55.628 33.7386 55.2687 33.9906 54.802C34.2426 54.3353 34.3686 53.794 34.3686 53.178ZM41.1698 49.216C42.0845 49.216 42.8312 49.5007 43.4098 50.07C43.9885 50.63 44.2778 51.4467 44.2778 52.52V57H43.3118V52.632C43.3118 51.8013 43.1018 51.1667 42.6818 50.728C42.2712 50.2893 41.7065 50.07 40.9878 50.07C40.2505 50.07 39.6625 50.3033 39.2238 50.77C38.7852 51.2367 38.5658 51.9227 38.5658 52.828V57H37.5858V49.356H38.5658V50.658C38.8085 50.1913 39.1585 49.8367 39.6158 49.594C40.0732 49.342 40.5912 49.216 41.1698 49.216ZM54.865 51.946C55.4157 52.0487 55.8823 52.3287 56.265 52.786C56.6477 53.2433 56.839 53.7753 56.839 54.382C56.839 54.8767 56.713 55.3247 56.461 55.726C56.2183 56.118 55.859 56.4307 55.383 56.664C54.907 56.888 54.3377 57 53.675 57H50.287V47.214H53.577C54.5663 47.214 55.3177 47.4427 55.831 47.9C56.3537 48.3573 56.615 48.95 56.615 49.678C56.615 50.2847 56.4517 50.7793 56.125 51.162C55.7983 51.5353 55.3783 51.7967 54.865 51.946ZM51.267 51.54H53.549C54.2117 51.54 54.7203 51.386 55.075 51.078C55.439 50.7607 55.621 50.3267 55.621 49.776C55.621 49.2347 55.439 48.81 55.075 48.502C54.7203 48.194 54.1977 48.04 53.507 48.04H51.267V51.54ZM53.605 56.174C54.3143 56.174 54.865 56.006 55.257 55.67C55.6583 55.334 55.859 54.872 55.859 54.284C55.859 53.696 55.649 53.2293 55.229 52.884C54.8183 52.5293 54.263 52.352 53.563 52.352H51.267V56.174H53.605ZM58.1925 53.164C58.1925 52.38 58.3465 51.694 58.6545 51.106C58.9718 50.5087 59.4058 50.0513 59.9565 49.734C60.5165 49.4073 61.1465 49.244 61.8465 49.244C62.5745 49.244 63.1998 49.412 63.7225 49.748C64.2545 50.084 64.6372 50.5133 64.8705 51.036V49.356H65.8505V57H64.8705V55.306C64.6278 55.8287 64.2405 56.2627 63.7085 56.608C63.1858 56.944 62.5605 57.112 61.8325 57.112C61.1418 57.112 60.5165 56.9487 59.9565 56.622C59.4058 56.2953 58.9718 55.8333 58.6545 55.236C58.3465 54.6387 58.1925 53.948 58.1925 53.164ZM64.8705 53.178C64.8705 52.562 64.7445 52.0207 64.4925 51.554C64.2405 51.0873 63.8952 50.728 63.4565 50.476C63.0272 50.224 62.5512 50.098 62.0285 50.098C61.4872 50.098 61.0018 50.2193 60.5725 50.462C60.1432 50.7047 59.8025 51.0593 59.5505 51.526C59.3078 51.9833 59.1865 52.5293 59.1865 53.164C59.1865 53.7893 59.3078 54.34 59.5505 54.816C59.8025 55.2827 60.1432 55.642 60.5725 55.894C61.0018 56.1367 61.4872 56.258 62.0285 56.258C62.5512 56.258 63.0272 56.132 63.4565 55.88C63.8952 55.628 64.2405 55.2687 64.4925 54.802C64.7445 54.3353 64.8705 53.794 64.8705 53.178ZM71.6718 49.216C72.5864 49.216 73.3331 49.5007 73.9118 50.07C74.4904 50.63 74.7798 51.4467 74.7798 52.52V57H73.8138V52.632C73.8138 51.8013 73.6038 51.1667 73.1838 50.728C72.7731 50.2893 72.2084 50.07 71.4898 50.07C70.7524 50.07 70.1644 50.3033 69.7258 50.77C69.2871 51.2367 69.0678 51.9227 69.0678 52.828V57H68.0878V49.356H69.0678V50.658C69.3104 50.1913 69.6604 49.8367 70.1178 49.594C70.5751 49.342 71.0931 49.216 71.6718 49.216ZM83.2471 49.356L78.7111 60.598H77.6891L79.1731 56.958L76.0371 49.356H77.1151L79.7191 55.88L82.2391 49.356H83.2471ZM84.1281 53.164C84.1281 52.38 84.2821 51.694 84.5901 51.106C84.9074 50.5087 85.3414 50.0513 85.8921 49.734C86.4521 49.4073 87.0821 49.244 87.7821 49.244C88.5101 49.244 89.1354 49.412 89.6581 49.748C90.1901 50.084 90.5727 50.5133 90.8061 51.036V49.356H91.7861V57H90.8061V55.306C90.5634 55.8287 90.1761 56.2627 89.6441 56.608C89.1214 56.944 88.4961 57.112 87.7681 57.112C87.0774 57.112 86.4521 56.9487 85.8921 56.622C85.3414 56.2953 84.9074 55.8333 84.5901 55.236C84.2821 54.6387 84.1281 53.948 84.1281 53.164ZM90.8061 53.178C90.8061 52.562 90.6801 52.0207 90.4281 51.554C90.1761 51.0873 89.8307 50.728 89.3921 50.476C88.9627 50.224 88.4867 50.098 87.9641 50.098C87.4227 50.098 86.9374 50.2193 86.5081 50.462C86.0787 50.7047 85.7381 51.0593 85.4861 51.526C85.2434 51.9833 85.1221 52.5293 85.1221 53.164C85.1221 53.7893 85.2434 54.34 85.4861 54.816C85.7381 55.2827 86.0787 55.642 86.5081 55.894C86.9374 56.1367 87.4227 56.258 87.9641 56.258C88.4867 56.258 88.9627 56.132 89.3921 55.88C89.8307 55.628 90.1761 55.2687 90.4281 54.802C90.6801 54.3353 90.8061 53.794 90.8061 53.178ZM98.1533 57L95.0033 53.57V57H94.0233V46.64H95.0033V52.772L98.0833 49.356H99.4553L95.8293 53.164L99.4833 57H98.1533ZM105.572 46.64V57H104.592V46.64H105.572ZM107.343 53.164C107.343 52.38 107.497 51.694 107.805 51.106C108.122 50.5087 108.556 50.0513 109.107 49.734C109.667 49.4073 110.297 49.244 110.997 49.244C111.725 49.244 112.35 49.412 112.873 49.748C113.405 50.084 113.788 50.5133 114.021 51.036V49.356H115.001V57H114.021V55.306C113.778 55.8287 113.391 56.2627 112.859 56.608C112.336 56.944 111.711 57.112 110.983 57.112C110.292 57.112 109.667 56.9487 109.107 56.622C108.556 56.2953 108.122 55.8333 107.805 55.236C107.497 54.6387 107.343 53.948 107.343 53.164ZM114.021 53.178C114.021 52.562 113.895 52.0207 113.643 51.554C113.391 51.0873 113.046 50.728 112.607 50.476C112.178 50.224 111.702 50.098 111.179 50.098C110.638 50.098 110.152 50.2193 109.723 50.462C109.294 50.7047 108.953 51.0593 108.701 51.526C108.458 51.9833 108.337 52.5293 108.337 53.164C108.337 53.7893 108.458 54.34 108.701 54.816C108.953 55.2827 109.294 55.642 109.723 55.894C110.152 56.1367 110.638 56.258 111.179 56.258C111.702 56.258 112.178 56.132 112.607 55.88C113.046 55.628 113.391 55.2687 113.643 54.802C113.895 54.3353 114.021 53.794 114.021 53.178ZM120.444 49.244C121.163 49.244 121.788 49.412 122.32 49.748C122.852 50.084 123.235 50.5087 123.468 51.022V49.356H124.448V57.196C124.448 57.896 124.294 58.5167 123.986 59.058C123.687 59.5993 123.267 60.0147 122.726 60.304C122.185 60.6027 121.569 60.752 120.878 60.752C119.898 60.752 119.081 60.5187 118.428 60.052C117.784 59.5853 117.383 58.9507 117.224 58.148H118.19C118.358 58.68 118.675 59.1047 119.142 59.422C119.618 59.7393 120.197 59.898 120.878 59.898C121.373 59.898 121.816 59.7907 122.208 59.576C122.6 59.3707 122.908 59.0627 123.132 58.652C123.356 58.2413 123.468 57.756 123.468 57.196V55.306C123.225 55.8287 122.838 56.2627 122.306 56.608C121.783 56.944 121.163 57.112 120.444 57.112C119.744 57.112 119.114 56.9487 118.554 56.622C118.003 56.2953 117.569 55.8333 117.252 55.236C116.944 54.6387 116.79 53.948 116.79 53.164C116.79 52.38 116.944 51.694 117.252 51.106C117.569 50.5087 118.003 50.0513 118.554 49.734C119.114 49.4073 119.744 49.244 120.444 49.244ZM123.468 53.178C123.468 52.562 123.342 52.0207 123.09 51.554C122.838 51.0873 122.493 50.728 122.054 50.476C121.625 50.224 121.149 50.098 120.626 50.098C120.085 50.098 119.599 50.2193 119.17 50.462C118.741 50.7047 118.4 51.0593 118.148 51.526C117.905 51.9833 117.784 52.5293 117.784 53.164C117.784 53.7893 117.905 54.34 118.148 54.816C118.4 55.2827 118.741 55.642 119.17 55.894C119.599 56.1367 120.085 56.258 120.626 56.258C121.149 56.258 121.625 56.132 122.054 55.88C122.493 55.628 122.838 55.2687 123.09 54.802C123.342 54.3353 123.468 53.794 123.468 53.178ZM127.175 47.914C126.979 47.914 126.811 47.844 126.671 47.704C126.531 47.564 126.461 47.3913 126.461 47.186C126.461 46.9807 126.531 46.8127 126.671 46.682C126.811 46.542 126.979 46.472 127.175 46.472C127.371 46.472 127.539 46.542 127.679 46.682C127.819 46.8127 127.889 46.9807 127.889 47.186C127.889 47.3913 127.819 47.564 127.679 47.704C127.539 47.844 127.371 47.914 127.175 47.914ZM127.665 49.356V57H126.685V49.356H127.665ZM138.472 51.4V52.226H133.026V51.4H138.472Z" fill="#0A2E09"/>
</svg>
