<svg width="102" height="96" viewBox="0 0 102 96" fill="none" xmlns="http://www.w3.org/2000/svg">
<ellipse rx="2.63507" ry="2.64037" transform="matrix(0.723469 -0.690357 0.741916 0.670493 46.3468 74.6576)" fill="#F7C291"/>
<ellipse rx="2.63507" ry="2.64037" transform="matrix(0.723469 -0.690357 0.741916 0.670493 46.4519 81.8364)" fill="#F7C291"/>
<path d="M52.0159 1.85682C30.2905 13.9576 32.0769 37.4245 35.6858 47.6453C20.4033 62.2284 29.1373 77.2911 35.3056 81.4737C39.6606 61.4066 50.2831 66.065 51.8565 68.8788C61.6641 60.6002 65.5287 76.7032 67.1146 80.2242C82.4271 67.3386 73.1194 53.6378 66.5515 48.3981C74.432 28.796 60.1446 9.20303 52.0159 1.85682Z" stroke="#109F8F" stroke-width="2" stroke-linecap="round" stroke-linejoin="round"/>
<ellipse rx="5.27014" ry="5.28074" transform="matrix(0.723469 -0.690357 0.741916 0.670493 51.5406 33.3054)" fill="#F7C291"/>
<ellipse rx="2.63507" ry="2.64037" transform="matrix(0.723469 -0.690357 0.741916 0.670493 54.0775 74.5599)" fill="#F7C291"/>
<ellipse rx="2.63507" ry="2.64037" transform="matrix(0.723469 -0.690357 0.741916 0.670493 54.1825 81.7388)" fill="#F7C291"/>
</svg>
