<svg width="50" height="50" viewBox="0 0 50 50" fill="none" xmlns="http://www.w3.org/2000/svg">
<circle cx="25" cy="25" r="25" fill="#F7C291"/>
<path opacity="0.75" d="M12 40V29.6153C12 28.8726 12.781 28.389 13.4458 28.7202L26.0542 35.0002C26.3349 35.14 26.6651 35.14 26.9458 35.0002L39.5542 28.7202C40.219 28.389 41 28.8726 41 29.6153V40C41 40.5523 40.5523 41 40 41H13C12.4477 41 12 40.5523 12 40Z" fill="#FFD9B6"/>
<path d="M10 37V26.6153C10 25.8726 10.781 25.389 11.4458 25.7202L24.0542 32.0002C24.3349 32.14 24.6651 32.14 24.9458 32.0002L37.5542 25.7202C38.219 25.389 39 25.8726 39 26.6153V37C39 37.5523 38.5523 38 38 38H11C10.4477 38 10 37.5523 10 37Z" fill="white"/>
<circle cx="39.5" cy="26.5" r="3.5" fill="#109F8F"/>
<path d="M38 27.25L39.3333 28L41 26" stroke="white" stroke-linecap="round" stroke-linejoin="round"/>
<rect x="22" y="5" width="5" height="18" rx="1" fill="white"/>
<path d="M24.5476 28.029L19.7487 21.3043L29.2749 21.2539L24.5476 28.029Z" fill="white"/>
</svg>
